<svg width="95" height="36" viewBox="0 0 95 36" fill="none" xmlns="http://www.w3.org/2000/svg">
    <path d="M50.9453 27H49.4805L42.9062 17.9531L40.6211 19.9688V27H39.4258V9.86719H40.6211V18.7734L42.5195 16.875L49.2344 9.86719H50.7578L43.7383 17.1094L50.9453 27ZM58.0938 14.0156C58.6328 14.0156 59.2109 14.0703 59.8281 14.1797L59.6055 15.293C59.0742 15.1602 58.5234 15.0938 57.9531 15.0938C56.8672 15.0938 55.9766 15.5547 55.2812 16.4766C54.5859 17.3984 54.2383 18.5625 54.2383 19.9688V27H53.0781V14.2617H54.0625L54.1797 16.5586H54.2617C54.7852 15.6211 55.3438 14.9648 55.9375 14.5898C56.5312 14.207 57.25 14.0156 58.0938 14.0156ZM70.1641 27L69.8711 24.9844H69.7773C69.1367 25.8047 68.4766 26.3867 67.7969 26.7305C67.125 27.0664 66.3281 27.2344 65.4062 27.2344C64.1562 27.2344 63.1836 26.9141 62.4883 26.2734C61.793 25.6328 61.4453 24.7461 61.4453 23.6133C61.4453 22.3711 61.9609 21.4062 62.9922 20.7188C64.0312 20.0312 65.5312 19.668 67.4922 19.6289L69.918 19.5586V18.7148C69.918 17.5039 69.6719 16.5898 69.1797 15.9727C68.6875 15.3555 67.8945 15.0469 66.8008 15.0469C65.6211 15.0469 64.3984 15.375 63.1328 16.0312L62.6992 15.0234C64.0977 14.3672 65.4805 14.0391 66.8477 14.0391C68.2461 14.0391 69.2891 14.4023 69.9766 15.1289C70.6719 15.8555 71.0195 16.9883 71.0195 18.5273V27H70.1641ZM65.4766 26.1797C66.8359 26.1797 67.9062 25.793 68.6875 25.0195C69.4766 24.2383 69.8711 23.1562 69.8711 21.7734V20.5195L67.6445 20.6133C65.8555 20.6992 64.5781 20.9805 63.8125 21.457C63.0547 21.9258 62.6758 22.6602 62.6758 23.6602C62.6758 24.457 62.918 25.0781 63.4023 25.5234C63.8945 25.9609 64.5859 26.1797 65.4766 26.1797ZM91.0703 27V18.6445C91.0703 17.4023 90.8281 16.4961 90.3438 15.9258C89.8594 15.3555 89.1172 15.0703 88.1172 15.0703C86.8125 15.0703 85.8477 15.4297 85.2227 16.1484C84.5977 16.8672 84.2852 17.9961 84.2852 19.5352V27H83.1016V18.293C83.1016 16.1445 82.1172 15.0703 80.1484 15.0703C78.8125 15.0703 77.8398 15.4609 77.2305 16.2422C76.6211 17.0156 76.3164 18.2578 76.3164 19.9688V27H75.1562V14.2617H76.1172L76.3633 16.0078H76.4336C76.7852 15.375 77.2852 14.8867 77.9336 14.543C78.582 14.1914 79.2969 14.0156 80.0781 14.0156C82.0859 14.0156 83.375 14.7695 83.9453 16.2773H83.9922C84.4062 15.5508 84.9609 14.9922 85.6562 14.6016C86.3594 14.2109 87.1562 14.0156 88.0469 14.0156C89.4375 14.0156 90.4805 14.3867 91.1758 15.1289C91.8711 15.8711 92.2188 17.0508 92.2188 18.668V27H91.0703Z" fill="black"/>
    <path d="M27 0H11C9.34315 0 8 1.34315 8 3V28C8 29.6569 9.34315 31 11 31H27C28.6569 31 30 29.6569 30 28V3C30 1.34315 28.6569 0 27 0Z" fill="#2F4858"/>
    <rect x="12" y="11" width="14" height="2" fill="white"/>
    <rect x="12" y="15" width="14" height="2" fill="white"/>
    <rect x="12" y="19" width="14" height="2" fill="white"/>
    <path d="M19 5H3C1.34315 5 0 6.34315 0 8V33C0 34.6569 1.34315 36 3 36H19C20.6569 36 22 34.6569 22 33V8C22 6.34315 20.6569 5 19 5Z" fill="#29AB87"/>
    <rect x="4" y="16" width="14" height="2" fill="white"/>
    <rect x="4" y="20" width="14" height="2" fill="white"/>
    <rect x="4" y="24" width="14" height="2" fill="white"/>
</svg>