<svg width="30" height="36" viewBox="0 0 30 36" fill="none" xmlns="http://www.w3.org/2000/svg">
<path d="M27 0H11C9.34315 0 8 1.34315 8 3V28C8 29.6569 9.34315 31 11 31H27C28.6569 31 30 29.6569 30 28V3C30 1.34315 28.6569 0 27 0Z" fill="#2F4858"/>
<rect x="12" y="11" width="14" height="2" fill="white"/>
<rect x="12" y="15" width="14" height="2" fill="white"/>
<rect x="12" y="19" width="14" height="2" fill="white"/>
<path d="M19 5H3C1.34315 5 0 6.34315 0 8V33C0 34.6569 1.34315 36 3 36H19C20.6569 36 22 34.6569 22 33V8C22 6.34315 20.6569 5 19 5Z" fill="#29AB87"/>
<rect x="4" y="16" width="14" height="2" fill="white"/>
<rect x="4" y="20" width="14" height="2" fill="white"/>
<rect x="4" y="24" width="14" height="2" fill="white"/>
</svg>
