<svg width="336" height="363" viewBox="0 0 336 363" fill="none" xmlns="http://www.w3.org/2000/svg">
<path fill-rule="evenodd" clip-rule="evenodd" d="M255.663 54.7751C254.509 47.9669 251.928 41.4796 248.09 35.739C242.872 29.2495 236.795 23.4998 230.027 18.6481C210.24 3.94329 185.435 -2.32664 161.038 1.20982C136.864 4.00241 114.584 15.6619 98.5103 33.9326C86.0635 49.0781 78.141 67.4273 75.6529 86.8727C72.7521 106.304 75.3513 126.16 83.1563 144.19C97.0513 174.411 125.883 189.001 156.522 190.182C171.575 190.832 186.591 188.24 200.555 182.583C214.519 176.925 227.105 168.334 237.461 157.39C243.728 150.125 248.455 141.664 251.356 132.518C254.201 123.752 255.997 114.68 256.705 105.492C257.331 98.5445 260.457 85.2052 260.804 74.4366C261.203 68.8758 260.348 63.2963 258.303 58.1099C257.708 56.7354 256.684 55.59 255.385 54.8446L255.663 54.7751ZM246.006 57.0678C244.301 52.0063 241.687 47.2977 238.294 43.1728C233.372 37.9093 227.845 33.2454 221.829 29.2778C213.482 22.8971 203.953 18.2361 193.792 15.5647C183.631 12.8933 173.041 12.2647 162.636 13.7153C141.427 15.9415 121.822 26.0294 107.681 41.9917C96.929 55.4114 90.1858 71.5951 88.2279 88.679C85.8129 105.629 88.2207 122.917 95.1754 138.562C106.917 163.573 131.303 175.037 156.73 175.801C169.655 176.349 182.547 174.114 194.534 169.248C206.52 164.381 217.321 156.997 226.206 147.594C231.314 141.81 235.149 135.017 237.461 127.655C239.912 119.988 241.451 112.06 242.046 104.033C242.602 97.9192 244.755 87.359 245.798 77.7019C246.759 73.1201 246.759 68.3887 245.798 63.8069C245.26 62.7085 245.022 61.4877 245.107 60.2678C245.193 59.0479 245.599 57.8722 246.284 56.8594L246.006 57.0678Z" fill="black"/>
<path fill-rule="evenodd" clip-rule="evenodd" d="M12.0143 345.806C10.104 339.838 9.9592 333.444 11.5974 327.396C14.1793 317.274 17.6912 307.413 22.0882 297.938C30.1246 278.351 41.5549 260.335 55.8531 244.72C70.3335 229.37 87.4982 216.797 106.5 207.62C119.995 200.96 134.185 195.811 148.811 192.266C163.094 188.475 177.93 187.205 192.65 188.515C230.93 193.17 264.279 216.305 287.622 247.152C311.37 277.811 323.503 315.884 321.873 354.63C321.744 356.472 322.353 358.291 323.564 359.685C324.776 361.079 326.492 361.935 328.335 362.064C330.177 362.193 331.996 361.584 333.39 360.373C334.784 359.161 335.639 357.445 335.768 355.602C337.819 313.485 324.816 272.013 299.086 238.606C286.823 221.512 271.235 207.071 253.256 196.147C235.277 185.224 215.277 178.043 194.456 175.037C178.118 173.637 161.661 175.095 145.823 179.344C130.226 183.195 115.104 188.764 100.734 195.949C59.8459 216.391 28.0774 251.381 11.6669 294.047C7.09429 304.214 3.60139 314.832 1.24563 325.728C-0.287986 333.773 0.606859 342.093 3.81623 349.628C4.37025 350.629 5.27351 351.391 6.3536 351.768C7.43369 352.145 8.61492 352.112 9.67178 351.673C10.7287 351.235 11.5871 350.423 12.0833 349.392C12.5794 348.361 12.6785 347.184 12.3616 346.084L12.0143 345.806Z" fill="black"/>
</svg>
